<svg xmlns="http://www.w3.org/2000/svg" width="767.153" height="672" viewBox="0 0 767.153 672"><defs><style>.a,.j,.n,.u,.v{fill:#fff;}.b{fill:#ebebeb;}.c{fill:#f0f0f0;}.d{fill:#f5f5f5;}.e{fill:#e6e6e6;}.f{fill:#e0e0e0;}.g{fill:#fafafa;}.h{fill:rgba(59,62,66,0.03);}.i,.l,.m,.p{fill:#6f92fe;}.j,.o{opacity:0.3;}.k{fill:#263238;}.l,.n{opacity:0.4;}.m{opacity:0.1;}.p{opacity:0.6;}.q{fill:#ff5652;}.r{fill:#ff8b7b;}.s,.t{opacity:0.2;}.u{opacity:0.5;}.v{opacity:0.7;}</style></defs><g transform="translate(-992.847 -1148)"><circle class="a" cx="336" cy="336" r="336" transform="translate(1088 1148)"/><g transform="translate(992.847 1177)"><g transform="translate(0 55)"><rect class="b" width="677.153" height="0.339" transform="translate(0 443.4)"/><path class="b" d="M307.432,438H45.93a7.733,7.733,0,0,1-7.72-7.733V62.665A7.733,7.733,0,0,1,45.93,55h261.5a7.733,7.733,0,0,1,7.733,7.733V430.264A7.733,7.733,0,0,1,307.432,438ZM45.93,55.271a7.4,7.4,0,0,0-7.381,7.395v367.6a7.4,7.4,0,0,0,7.381,7.395h261.5a7.408,7.408,0,0,0,7.394-7.395V62.665a7.408,7.408,0,0,0-7.395-7.395Z" transform="translate(13.538 -55)"/><path class="b" d="M523.749,438H262.233a7.747,7.747,0,0,1-7.733-7.733V62.665A7.747,7.747,0,0,1,262.233,55H523.749a7.733,7.733,0,0,1,7.706,7.665v367.6A7.733,7.733,0,0,1,523.749,438ZM262.233,55.271a7.408,7.408,0,0,0-7.395,7.395v367.6a7.408,7.408,0,0,0,7.395,7.394H523.749a7.408,7.408,0,0,0,7.395-7.395V62.665a7.408,7.408,0,0,0-7.395-7.395Z" transform="translate(90.171 -55)"/><rect class="b" width="35.212" height="0.339" transform="translate(236.245 456.293)"/><rect class="b" width="73.268" height="0.339" transform="translate(71.047 452.622)"/><rect class="b" width="35.645" height="0.339" transform="translate(199.245 468.874)"/><rect class="b" width="52.588" height="0.339" transform="translate(349.722 466.599)"/><rect class="b" width="14.478" height="0.339" transform="translate(414.363 466.599)"/><rect class="b" width="73.891" height="0.339" transform="translate(535.425 460.884)"/><rect class="c" width="61.824" height="169.925" transform="translate(577.896 431.387) rotate(180)"/><rect class="c" width="319.9" height="12.013" transform="translate(566.018 443.386) rotate(180)"/><rect class="d" width="281.817" height="169.925" transform="translate(234.254 261.449)"/><rect class="c" width="282.901" height="62.203" transform="translate(234.254 272.96)"/><rect class="c" width="282.901" height="62.203" transform="translate(234.254 346.499)"/><rect class="e" width="10.699" height="62.203" transform="translate(526.771 335.15) rotate(180)"/><rect class="e" width="10.699" height="62.203" transform="translate(526.771 408.689) rotate(180)"/><rect class="c" width="290.052" height="10.455" transform="translate(516.072 261.449) rotate(180)"/><rect class="e" width="70.465" height="10.455" transform="translate(516.072 250.993)"/><rect class="c" width="145.493" height="182.885" transform="translate(589.908 219.032) rotate(180)"/><rect class="d" width="172.037" height="182.885" transform="translate(584.329 219.032) rotate(180)"/><rect class="a" width="154.066" height="143.218" transform="translate(426.701 204.622) rotate(-90)"/><path class="e" d="M379.65,170.254l27.37-12.69v-7.977L379.65,136.87v9.561l16.631,7.164L379.65,160.76Z" transform="translate(134.512 -25.993)"/><path class="e" d="M367.777,134.15h-5l8.857,40.778h4.984Z" transform="translate(128.535 -26.957)"/><path class="e" d="M363.4,160.76,346.834,153.6l16.631-7.164V136.87L336,149.587v7.977l27.37,12.69Z" transform="translate(119.047 -25.993)"/><rect class="c" width="9.534" height="310.38" transform="translate(168.286 443.4) rotate(180)"/><path class="c" d="M116.805,457.5l-.257-1.354a7.557,7.557,0,0,0,4.51-3.941c2.478-4.388,3.982-13.746-2.912-33.357-10.618-30.228-4.28-54.606,8.356-103.2,2.194-8.464,4.686-18.053,7.273-28.44,9.71-38.828.731-62.907-6.487-82.261-5.593-15.019-10.022-26.883-4.361-40.629l1.26.515c-5.417,13.245-1.124,24.892,4.374,39.641,7.286,19.516,16.346,43.825,6.528,83.046-2.587,10.374-5.079,19.962-7.273,28.44-12.568,48.362-18.879,72.631-8.383,102.534,7.083,20.166,5.417,29.917,2.709,34.535A8.776,8.776,0,0,1,116.805,457.5Z" transform="translate(39.956 -16.267)"/><path class="c" d="M107.99,383.881h34.521l-9.6-5.661H117.592Z" transform="translate(38.261 59.519)"/><path class="d" d="M70.31,212.434H206.892L191.859,97.67H85.343Z" transform="translate(24.911 -39.882)"/><path class="c" d="M219.88,196.38H292.8l-9.6,59.522H229.482Z" transform="translate(77.905 -4.908)"/><path class="f" d="M257.64,225.9c19.881-7.191,35.1-18,18.066-39.871s-43.433-21.764-61.228-12.08c-22.671,12.324-18.121,48.01-18.121,48.01S237.759,233.106,257.64,225.9Z" transform="translate(69.438 -15.063)"/><path class="e" d="M260.351,206.958c-15.209-10.36-25.989-22.346-8.343-35s39.41-6.162,52.493,5.58c16.671,14.979,7.042,41.266,7.042,41.266S275.546,217.265,260.351,206.958Z" transform="translate(86.053 -16.001)"/><path class="c" d="M248.688,188.955c17.8-1.07,32.72-5.715,24.3-24.987s-29.795-24.675-46.466-21.371c-21.3,4.212-26.328,30.865-26.328,30.865S230.906,190.039,248.688,188.955Z" transform="translate(70.928 -24.285)"/><path class="b" d="M257.641,178.272c-14.8-4.767-26.409-11.9-15.128-26.382s30.472-14.4,43.879-8c17.091,8.126,15.574,31.772,15.574,31.772S272.444,183.026,257.641,178.272Z" transform="translate(84.321 -24.965)"/><path class="d" d="M240.967,161.819c14.775,4.876,28.359,5.932,27.75-12.405s-16.13-29.578-30.729-32.368c-18.622-3.467-31.3,16.509-31.3,16.509S226.219,156.9,240.967,161.819Z" transform="translate(73.231 -33.16)"/><path class="g" d="M264.137,151.755c-10.577.731-19.719-.867-16.252-12.879s15.656-16.793,25.732-16.13C286.483,123.6,291.481,139,291.481,139S274.7,151.037,264.137,151.755Z" transform="translate(87.562 -31.019)"/></g><g transform="translate(75.99 528.899)"><ellipse class="h" cx="262.586" cy="15.331" rx="262.586" ry="15.331"/></g><g transform="translate(107.681 126.331)"><rect class="i" width="460.125" height="16.509" transform="translate(0 194.234)"/><rect class="j" width="123.147" height="16.509" transform="translate(0 194.234)"/><path class="i" d="M174.693,263.28H163.98l5.607,206.911H179.8l5.62-206.911Z" transform="translate(-49.582 -52.537)"/><path class="j" d="M169.541,469.029h5.106V266.56l-10.536,1.923Z" transform="translate(-49.536 -51.374)"/><path class="i" d="M99.723,263.28H89.01l5.607,206.911h10.211l5.607-206.911Z" transform="translate(-76.144 -52.537)"/><path class="j" d="M94.574,469.029H99.68V266.56l-10.55,1.923Z" transform="translate(-76.102 -51.374)"/><path class="i" d="M404.653,263.28H393.94l5.607,206.911h10.211l5.62-206.911Z" transform="translate(31.894 -52.537)"/><path class="j" d="M399.5,469.029h5.106V266.56l-10.536,1.923Z" transform="translate(31.94 -51.374)"/><path class="i" d="M329.683,263.28H318.97l5.607,206.911h10.211L340.4,263.28Z" transform="translate(5.332 -52.537)"/><path class="j" d="M324.531,469.029h5.106V266.56L319.1,268.483Z" transform="translate(5.378 -51.374)"/><path class="k" d="M270.933,185.831h-109.4a5.634,5.634,0,0,0-5.647,7.151l14.572,69.544a9.3,9.3,0,0,0,8.64,7.137H288.58a5.634,5.634,0,0,0,5.647-7.137l-14.586-69.544A9.3,9.3,0,0,0,270.933,185.831Z" transform="translate(-52.524 -79.979)"/><path class="a" d="M179.042,265.237a6.487,6.487,0,0,1-5.851-4.876l-14.572-69.544a3.183,3.183,0,0,1,.5-2.709,2.939,2.939,0,0,1,2.343-.989H270.945A6.487,6.487,0,0,1,276.8,192l14.572,69.544a3.183,3.183,0,0,1-.5,2.709,2.9,2.9,0,0,1-2.343.989Z" transform="translate(-51.521 -79.521)"/><path class="l" d="M238.288,258.788l-13.814-65.941a2.709,2.709,0,0,1,2.627-3.237h17.768a2.709,2.709,0,0,1,2.627,2.14l13.814,65.887a2.709,2.709,0,0,1-2.627,3.237H240.915A2.709,2.709,0,0,1,238.288,258.788Z" transform="translate(-28.167 -78.638)"/><path class="i" d="M165.476,194.618l-.6-2.858h21.94l.6,2.858Z" transform="translate(-49.263 -77.876)"/><path class="b" d="M172.956,199.858l-.6-2.858h38.449l.609,2.858Z" transform="translate(-46.613 -76.02)"/><path class="b" d="M174.459,205.088l-.609-2.858h43.108l.6,2.858Z" transform="translate(-46.085 -74.167)"/><path class="b" d="M175.946,210.328l-.6-2.858h34.7l.609,2.858Z" transform="translate(-45.553 -72.31)"/><path class="i" d="M170.409,218.818l-.609-2.858h13.882l.6,2.858Z" transform="translate(-47.52 -69.302)"/><path class="b" d="M177.876,224.048l-.6-2.858h16.9l.609,2.858Z" transform="translate(-44.87 -67.449)"/><path class="b" d="M193.359,224.048l-.609-2.858h16.915l.6,2.858Z" transform="translate(-39.388 -67.449)"/><path class="b" d="M179.376,229.288l-.6-2.858h57.152l.6,2.858Z" transform="translate(-44.338 -65.593)"/><path class="b" d="M180.866,234.518l-.6-2.858h43.582l.6,2.858Z" transform="translate(-43.81 -63.74)"/><path class="k" d="M317.722,247.42H173.678c-3.927,0-6.474,2.235-5.647,4.97H326.363C325.55,249.655,321.65,247.42,317.722,247.42Z" transform="translate(-48.202 -58.156)"/><path class="m" d="M140.84,190.934l-13.827-65.9a2.709,2.709,0,0,1,2.627-3.223H241.506a2.709,2.709,0,0,1,2.627,2.126l13.827,65.846a2.709,2.709,0,0,1-2.627,3.237H143.468A2.709,2.709,0,0,1,140.84,190.934Z" transform="translate(-62.697 -102.66)"/><path class="i" d="M172.852,124.073H149.368l-.528-2.533h23.484Z" transform="translate(-54.946 -102.756)"/><path class="l" d="M166.354,127.053h-9.426l-.528-2.533h9.426Z" transform="translate(-52.267 -101.7)"/><path class="l" d="M179.266,127.053H164.748l-.528-2.533h14.518Z" transform="translate(-49.497 -101.7)"/><path class="l" d="M188.142,130.023H157.548l-.528-2.533h30.607Z" transform="translate(-52.048 -100.648)"/><path class="l" d="M184.035,133H158.168l-.528-2.533h25.867Z" transform="translate(-51.828 -99.592)"/><path class="l" d="M194.108,163.95H177.64l.528,2.519h16.468Z" transform="translate(-44.742 -87.73)"/><path class="i" d="M181.088,160.533h-24.12L156.44,158h24.12Z" transform="translate(-52.253 -89.838)"/><path class="l" d="M187.667,166.92H165.24l.528,2.533H188.2Z" transform="translate(-49.135 -86.677)"/><path class="l" d="M181.088,163.95H164.62l.528,2.519h16.468Z" transform="translate(-49.355 -87.73)"/><path class="l" d="M196.937,160.97H164l.528,2.533h32.937Z" transform="translate(-49.575 -88.786)"/><path class="i" d="M173.05,110.189H146.478l-.528-2.519h26.571Z" transform="translate(-55.97 -107.67)"/><path class="l" d="M183.317,116.59H154.01l.528,2.533h29.294Z" transform="translate(-53.114 -104.51)"/><path class="l" d="M177.673,113.62H153.39l.528,2.519H178.2Z" transform="translate(-53.334 -105.562)"/><path class="l" d="M179.5,110.64H152.77l.528,2.533h26.734Z" transform="translate(-53.554 -106.618)"/><path class="i" d="M170.711,137.843H152.238l-.528-2.533h18.473Z" transform="translate(-53.929 -97.877)"/><path class="l" d="M196.6,144.23H160.51l.528,2.533h36.079Z" transform="translate(-50.811 -94.717)"/><path class="l" d="M174.842,141.26H159.89l.528,2.533H175.37Z" transform="translate(-51.031 -95.769)"/><path class="l" d="M186.822,141.26H171.87l.528,2.533H187.35Z" transform="translate(-46.786 -95.769)"/><path class="l" d="M192.207,138.28H159.27l.528,2.533h32.923Z" transform="translate(-51.251 -96.825)"/><path class="l" d="M191.041,153.16H162.37l.528,2.519h28.671Z" transform="translate(-50.152 -91.553)"/><path class="l" d="M170.093,150.18H161.75l.528,2.533h8.329Z" transform="translate(-50.372 -92.608)"/><path class="l" d="M180.654,150.18h-11.9l.528,2.533h11.9Z" transform="translate(-47.892 -92.608)"/><path class="l" d="M194.067,147.21H161.13l.528,2.519h32.937Z" transform="translate(-50.592 -93.661)"/><path class="l" d="M207.824,147.373h-11.8l-.528-2.533h11.81Z" transform="translate(-38.414 -94.5)"/><path class="l" d="M223.993,147.373H205.818l-.528-2.533h18.175Z" transform="translate(-34.945 -94.5)"/><path class="l" d="M234.961,150.353H196.648l-.528-2.533h38.313Z" transform="translate(-38.194 -93.445)"/><path class="l" d="M229.65,153.323H197.268l-.528-2.533h32.381Z" transform="translate(-37.975 -92.392)"/><path class="l" d="M241.348,134.88H204.66l.528,2.519h36.688Z" transform="translate(-35.169 -98.029)"/><path class="l" d="M234.444,131.9h-30.4l.528,2.533h30.391Z" transform="translate(-35.388 -99.085)"/><path class="i" d="M231.188,128.93H197.71l.528,2.519h33.478Z" transform="translate(-37.631 -100.137)"/><path class="l" d="M244.79,164.56H199.61l.528,2.533h45.18Z" transform="translate(-36.958 -87.514)"/><path class="l" d="M217.706,161.59H198.99l.528,2.519h18.716Z" transform="translate(-37.178 -88.566)"/><path class="l" d="M232.706,161.59H213.99l.528,2.519h18.716Z" transform="translate(-31.863 -88.566)"/><path class="l" d="M239.6,158.61H198.37l.528,2.533h41.225Z" transform="translate(-37.397 -89.622)"/><path class="l" d="M237.359,173.48H201.47l.528,2.533h35.889Z" transform="translate(-36.299 -84.353)"/><path class="l" d="M211.292,170.51H200.85l.528,2.533H211.82Z" transform="translate(-36.519 -85.405)"/><path class="l" d="M224.517,170.51h-14.9l.528,2.533h14.9Z" transform="translate(-33.411 -85.405)"/><path class="l" d="M241.469,167.53H200.23l.528,2.533h41.225Z" transform="translate(-36.738 -86.461)"/><path class="l" d="M156.948,175.79H128.86l.528,2.533h28.088Z" transform="translate(-62.025 -83.535)"/><path class="l" d="M148.866,172.82H128.24l.528,2.519h20.613Z" transform="translate(-62.245 -84.587)"/><path class="l" d="M165.153,172.82H144.54l.528,2.519h20.626Z" transform="translate(-56.47 -84.587)"/><path class="l" d="M168.859,169.84H127.62l.528,2.533h41.225Z" transform="translate(-62.464 -85.643)"/><path class="i" d="M395.5,231.66H378.11l2.031,26.314h13.326Z" transform="translate(26.286 -63.74)"/><path class="n" d="M395.5,231.66H378.11l2.031,26.314h13.326Z" transform="translate(26.286 -63.74)"/><path class="k" d="M113.362,218.17h25l-8.532,44.584h-25Z" transform="translate(-70.539 -68.519)"/><path class="i" d="M143.877,209.35H108.57l9.886,56.529h35.307Z" transform="translate(-69.214 -71.644)"/><path class="i" d="M107.03,209.35h2.086L119,265.879h-2.086Z" transform="translate(-69.76 -71.644)"/><path class="o" d="M107.03,209.35h2.086L119,265.879h-2.086Z" transform="translate(-69.76 -71.644)"/><path class="a" d="M121.654,258.245,113.88,213.81h23.05l7.76,44.435Z" transform="translate(-67.333 -70.064)"/><path class="p" d="M137.85,258.245l-7.76-44.435h1.1l7.76,44.435Z" transform="translate(-61.589 -70.064)"/></g><g transform="translate(264.802 150.345)"><path class="k" d="M264.518,156.379c.5,1.083.339,2.235-.379,2.56s-1.693-.284-2.194-1.354-.325-2.235.379-2.56S264.017,155.241,264.518,156.379Z" transform="translate(-172.095 -114.939)"/><path class="q" d="M264.324,157.58s.433,7.395-.894,11.674c2.709.907,5.634-1.354,5.634-1.354Z" transform="translate(-171.468 -114.001)"/><path class="k" d="M265.489,149.716a.718.718,0,0,1-.406.162,5.58,5.58,0,0,0-4.456,2.424.7.7,0,1,1-1.219-.7A6.961,6.961,0,0,1,265,148.47a.7.7,0,0,1,.488,1.246Z" transform="translate(-172.93 -117.229)"/><path class="r" d="M298.307,154.76c4.185,14.491,8.857,25.732,14.559,32.151,0,0,.108,11.39-19.3,16.807-21.344,5.959-13.164-7.747-13.164-7.747,10.834-6.027,9.805-15.128,1.652-18.595Z" transform="translate(-166 -115)"/><path class="k" d="M316.291,179.459c-.379-5.3-.88-11.336-4.144-11.5-3.6-.163-24.459,9.155-28.914,15.723s4.253,13,4.253,13Z" transform="translate(-164.901 -110.323)"/><path class="r" d="M280.5,237.156l-18.012-.6.325,15.087s15.71-1.625,16.4-5.756Z" transform="translate(-171.801 -86.018)"/><path class="r" d="M255.956,243.964l-1.9,7.72,11.742-.027-.325-15.087Z" transform="translate(-174.787 -86.014)"/><path class="i" d="M349.957,191.458l-.379,3.873c-.122,1.246-.284,2.465-.447,3.7-.312,2.451-.7,4.9-1.124,7.34-.813,4.889-1.869,9.751-3.088,14.64a146.055,146.055,0,0,1-4.5,14.721c-.935,2.478-1.91,4.957-3.074,7.476a61.941,61.941,0,0,1-4.063,7.652,20.039,20.039,0,0,1-1.273,1.95c-.447.6-.88,1.354-1.354,1.977a20.168,20.168,0,0,1-1.6,1.991l-.88,1a13.623,13.623,0,0,1-1,1.056,30.892,30.892,0,0,1-9.385,6.3,55.526,55.526,0,0,1-16.834,4.266c-2.641.312-5.255.433-7.814.5s-5.119,0-7.638-.135-5.011-.352-7.489-.65-4.889-.691-7.516-1.219l.433-14.152a217.138,217.138,0,0,0,25.6-6.094,56.121,56.121,0,0,0,5.5-2.113,25.232,25.232,0,0,0,4.361-2.37,6.067,6.067,0,0,0,1.977-1.923l.393-.623a8.86,8.86,0,0,0,.5-.826,10.224,10.224,0,0,0,.528-.962c.176-.352.366-.677.542-1.07a71.227,71.227,0,0,0,3.914-10.753c1.111-3.982,2.153-8.126,2.993-12.419s1.652-8.627,2.4-13l1.029-6.582.934-6.406Z" transform="translate(-168.963 -103.01)"/><path class="s" d="M349.957,191.458l-.379,3.873c-.122,1.246-.284,2.465-.447,3.7-.312,2.451-.7,4.9-1.124,7.34-.813,4.889-1.869,9.751-3.088,14.64a146.055,146.055,0,0,1-4.5,14.721c-.935,2.478-1.91,4.957-3.074,7.476a61.941,61.941,0,0,1-4.063,7.652,20.039,20.039,0,0,1-1.273,1.95c-.447.6-.88,1.354-1.354,1.977a20.168,20.168,0,0,1-1.6,1.991l-.88,1a13.623,13.623,0,0,1-1,1.056,30.892,30.892,0,0,1-9.385,6.3,55.526,55.526,0,0,1-16.834,4.266c-2.641.312-5.255.433-7.814.5s-5.119,0-7.638-.135-5.011-.352-7.489-.65-4.889-.691-7.516-1.219l.433-14.152a217.138,217.138,0,0,0,25.6-6.094,56.121,56.121,0,0,0,5.5-2.113,25.232,25.232,0,0,0,4.361-2.37,6.067,6.067,0,0,0,1.977-1.923l.393-.623a8.86,8.86,0,0,0,.5-.826,10.224,10.224,0,0,0,.528-.962c.176-.352.366-.677.542-1.07a71.227,71.227,0,0,0,3.914-10.753c1.111-3.982,2.153-8.126,2.993-12.419s1.652-8.627,2.4-13l1.029-6.582.934-6.406Z" transform="translate(-168.963 -103.01)"/><path class="i" d="M270.308,214.2a442.247,442.247,0,0,1,11.281,88.219h79.295c.433-9.792-1.219-65.007-9.2-104.891a27.628,27.628,0,0,0-33.045-21.669l-.379.095c-9.9,2.248-24.107,5.878-32.5,9.06l-.339.135a24.825,24.825,0,0,0-15.114,29.05Z" transform="translate(-169.285 -107.753)"/><path class="s" d="M273.93,226.743c.623,3.806,1.259,7.841,1.842,12.067,6.487-6.772,8.546-27.52,8.546-27.52Z" transform="translate(-167.747 -94.971)"/><path class="r" d="M230.155,238.169l-18-1.679-.6,15.073a16.9,16.9,0,0,0,16.848-4.754Z" transform="translate(-189.845 -86.042)"/><path class="r" d="M207.189,240.932l-5.769,10.36,13.787.271.6-15.073Z" transform="translate(-193.438 -86.042)"/><path class="i" d="M317.2,202.413c-1.246,2.37-2.357,4.469-3.6,6.636s-2.438,4.28-3.724,6.379c-2.546,4.225-5.187,8.37-7.977,12.473a208.074,208.074,0,0,1-18.568,23.89,102.519,102.519,0,0,1-11.769,11.2c-.528.447-1.151.88-1.733,1.354a13.571,13.571,0,0,1-1.964,1.354c-.867.5-1.6,1-2.384,1.436s-1.6.826-2.4,1.178a42.555,42.555,0,0,1-9.318,2.83,58.83,58.83,0,0,1-16.956.379,70.416,70.416,0,0,1-7.855-1.354q-1.937-.447-3.819-1.016c-1.354-.379-2.451-.8-3.9-1.354l2.235-13.976c8.505-1.151,17.7-2.627,24.039-5.5a17.377,17.377,0,0,0,3.941-2.262,9.219,9.219,0,0,0,1.354-1.138c.095-.122.515-.488.826-.786s.677-.582,1.016-.934a96.667,96.667,0,0,0,8.126-9.142,264.725,264.725,0,0,0,15.263-21.886c2.438-3.833,4.808-7.733,7.178-11.647l3.494-5.878,3.372-5.783Z" transform="translate(-186.419 -102.914)"/><path class="r" d="M281.848,416.582H267.032L259.57,382.25H274.4Z" transform="translate(-172.835 -34.399)"/><path class="k" d="M269.609,405.26h16.658a1.354,1.354,0,0,1,1.259,1l2.925,13.191a2.167,2.167,0,0,1-2.167,2.627c-5.81-.095-8.64-.433-15.967-.433-4.51,0-10.293.46-16.509.46s-7.042-6.149-4.5-6.7c11.43-2.505,12.189-5.945,15.886-9.236a3.575,3.575,0,0,1,2.411-.907Z" transform="translate(-176.239 -26.246)"/><g class="t" transform="translate(86.735 347.865)"><path d="M274.413,382.26H259.57l4.144,19.014,14.545-1.314Z" transform="translate(-259.57 -382.26)"/></g><path class="r" d="M299.853,145.3c5.417,13.706,9.182,21.466,5.607,31.42-5.417,14.965-24.635,16.482-33.98,4.645-8.4-10.658-15.737-31.284-5.133-42.62a20.057,20.057,0,0,1,33.506,6.555Z" transform="translate(-172.299 -122.957)"/><path class="k" d="M274.517,168.277c-2.221,2.979-3.927,5.241-3.927,5.241s-4.564-11.336-2.817-16.536c-2.221-4.4-6.7,2.086-8.4-6.487s5.634-17.782,8.4-19.692a10.037,10.037,0,0,1,.379,3.074,37.921,37.921,0,0,1,26.544-8.383,9.169,9.169,0,0,0-1.49,3.982s16.076,2.709,19.732,11.81a17.378,17.378,0,0,0-4.063-1.354,19.624,19.624,0,0,1,3.25,14.518,149.251,149.251,0,0,0-1.815,22.387c.149,3.846-10.4,11.2-16.834,3.345S274.517,168.277,274.517,168.277Z" transform="translate(-172.993 -125.402)"/><path class="r" d="M277.856,155.967a14.992,14.992,0,0,1-.677,9.616c-1.72,4.063-5.255,3.088-7-.46-1.585-3.183-2.6-9.087.2-11.918S276.8,152.135,277.856,155.967Z" transform="translate(-169.629 -116.045)"/><path class="i" d="M314.641,269.1s-68.853,24.973-70.871,58c-3.738,60.849,21.141,109.022,21.141,109.022l22.806-2.438s-4.063-19.583-7.083-74.7c-3.806-69.273,113.762,1.625,89.547-89.885Z" transform="translate(-178.569 -74.488)"/><path class="u" d="M314.641,269.1s-68.853,24.973-70.871,58c-3.738,60.849,21.141,109.022,21.141,109.022l22.806-2.438s-4.063-19.583-7.083-74.7c-3.806-69.273,113.762,1.625,89.547-89.885Z" transform="translate(-178.569 -74.488)"/><path class="i" d="M254.621,386.719c-.108,0,3.63,10.13,3.63,10.13l28.44-2.79-1.422-9.209Z" transform="translate(-174.59 -33.478)"/><path class="r" d="M233.743,417.835h-14.83L214.58,383.49h14.83Z" transform="translate(-188.775 -33.959)"/><path class="k" d="M225.556,405.25h16.252a1.273,1.273,0,0,1,1.259,1l2.952,13.177a2.153,2.153,0,0,1-2.126,2.709c-5.837-.095-14.288-.42-21.669-.406-8.586,0-10.225.474-20.315.488-6.094,0-7.787-6.135-5.241-6.772,11.593-2.546,15.3-2.83,25.312-9.02A6.771,6.771,0,0,1,225.556,405.25Z" transform="translate(-195.526 -26.25)"/><path class="s" d="M214.59,383.5l2.357,18.7,14.708-1-2.235-17.7Z" transform="translate(-188.772 -33.956)"/><path class="i" d="M307.647,269.1s-112.814,10.008-111.595,66.672c1.259,58.939,23.281,98.688,23.281,98.688h22.021s-4.171-30.58-3.426-88.6c.217-17.376,35.347-23.118,69.638-25.149,29.632-1.761,57.368-18.649,68.88-46.046l2.37-5.566Z" transform="translate(-195.343 -74.488)"/><path class="u" d="M307.647,269.1s-112.814,10.008-111.595,66.672c1.259,58.939,23.281,98.688,23.281,98.688h22.021s-4.171-30.58-3.426-88.6c.217-17.376,35.347-23.118,69.638-25.149,29.632-1.761,57.368-18.649,68.88-46.046l2.37-5.566Z" transform="translate(-195.343 -74.488)"/><path class="i" d="M209.43,387.074c-.095,0,3.779,10.184,3.779,10.184l26.6-1.91-1.557-9.209Z" transform="translate(-190.601 -33.02)"/><path class="k" d="M305.5,224.3l-14.315,55.161a172.132,172.132,0,0,0-5.5,43.27v25.637c0,6.474,4.767,11.728,10.658,11.728h73.376c5.891,0,10.658-5.255,10.658-11.728V322.732a172.147,172.147,0,0,1,5.512-43.27l12.636-48.755c1.95-7.489-3.169-14.9-10.252-14.9H315.742A10.834,10.834,0,0,0,305.5,224.3Z" transform="translate(-163.581 -93.369)"/><path class="k" d="M233,306.51l2.4,13.679c1.273,7.191,7.6,13.028,14.139,13.028H331.1c6.541,0,10.834-5.837,9.561-13.028l-2.4-13.679c-1.449-8.194-8.64-14.83-16.089-14.83H243.925C236.422,291.68,231.56,298.316,233,306.51Z" transform="translate(-182.34 -66.488)"/><path class="i" d="M323.44,336.083H280.711L276.54,322.35h51.071Z" transform="translate(-166.823 -55.622)"/><rect class="i" width="15.263" height="102.128" transform="translate(127.621 280.461)"/><path class="v" d="M305.023,433.977H289.76V334.3l15.263,1.557Z" transform="translate(-162.139 -51.388)"/><path class="v" d="M299.233,433.768H295.59V334.89l3.643.379Z" transform="translate(-160.073 -51.179)"/><path class="i" d="M340.183,424.187H269.976a1.95,1.95,0,0,1-1.138-3.521l11.132-8.126a31.257,31.257,0,0,1,18.446-6.04h13.34a31.244,31.244,0,0,1,18.432,6.04l11.146,8.126a1.95,1.95,0,0,1-1.151,3.521Z" transform="translate(-169.833 -25.807)"/></g></g></g></svg>