<svg xmlns="http://www.w3.org/2000/svg" width="24.25" height="27.743" viewBox="0 0 24.25 27.743"><defs><style>.a{fill:#6e77e5;}</style></defs><path class="a" d="M97.948,119.654a32.165,32.165,0,0,1-6.406-.214v-5a3.036,3.036,0,0,1,.747-2.2,23.352,23.352,0,0,0,1.324-1.943l-1.644-.256c-4.228-.619-5.894-2.819-6.556-4.527a7.262,7.262,0,0,1,1.132-6.961,1.288,1.288,0,0,0,.256-1.239,6.291,6.291,0,0,1-.064-3.139A9.741,9.741,0,0,1,90,95.737a1.534,1.534,0,0,0,.9.214,15.519,15.519,0,0,1,3.865-.555,13.085,13.085,0,0,1,3.566.512,1.541,1.541,0,0,0,1.153-.171,9.486,9.486,0,0,1,3.267-1.559,6.293,6.293,0,0,1-.064,3.139,1.286,1.286,0,0,0,.256,1.239,7.263,7.263,0,0,1,1.132,6.961c-.662,1.708-2.328,3.908-6.556,4.527l-1.644.256a22.833,22.833,0,0,0,1.324,1.943,3.037,3.037,0,0,1,.747,2.2Zm2.135-.833v-4.378a5.121,5.121,0,0,0-.6-2.627,9.133,9.133,0,0,0,6.577-5.552,9.389,9.389,0,0,0-1.217-8.755c.321-1.431.321-3.716-.448-4.783A1.667,1.667,0,0,0,102.988,92h-.021a9.356,9.356,0,0,0-4.356,1.772,15.06,15.06,0,0,0-3.887-.512,14.75,14.75,0,0,0-3.822.512A9.434,9.434,0,0,0,86.438,92a1.638,1.638,0,0,0-1.346.726c-.769,1.068-.769,3.353-.448,4.783a9.4,9.4,0,0,0-1.217,8.755A9.133,9.133,0,0,0,90,111.817a4.643,4.643,0,0,0-.557,1.871,2.847,2.847,0,0,1-1.753.144,2.363,2.363,0,0,1-1.37-1.172,4.39,4.39,0,0,0-3.937-2.437l.188,2.127c.762-.07,1.52.736,1.913,1.4a4.4,4.4,0,0,0,4.919,2.191v2.879C86.318,117.739,103.209,117.726,100.084,118.822Z" transform="translate(-82.387 -92)"/></svg>