<svg xmlns="http://www.w3.org/2000/svg" width="25.667" height="25.667" viewBox="0 0 25.667 25.667"><defs><style>.a{fill:#6e77e5;}</style></defs><g transform="translate(0)"><path class="a" d="M26.181,8H15.486A7.494,7.494,0,0,0,8,15.486V26.181a7.494,7.494,0,0,0,7.486,7.486H26.181a7.494,7.494,0,0,0,7.486-7.486V15.486A7.494,7.494,0,0,0,26.181,8Zm5.347,18.181a5.353,5.353,0,0,1-5.347,5.347H15.486a5.353,5.353,0,0,1-5.347-5.347V15.486a5.353,5.353,0,0,1,5.347-5.347H26.181a5.353,5.353,0,0,1,5.347,5.347Z" transform="translate(-8 -8)"/><path class="a" d="M26.882,21a5.882,5.882,0,1,0,5.882,5.882A5.889,5.889,0,0,0,26.882,21Zm0,9.625a3.743,3.743,0,1,1,3.743-3.743A3.747,3.747,0,0,1,26.882,30.625Z" transform="translate(-14.049 -14.049)"/><path class="a" d="M43.6,16a1.6,1.6,0,1,0,1.6,1.6A1.606,1.606,0,0,0,43.6,16Z" transform="translate(-23.82 -11.722)"/></g></svg>