<svg xmlns="http://www.w3.org/2000/svg" width="25.667" height="25.667" viewBox="0 0 25.667 25.667"><defs><style>.a{fill:#6e77e5;}</style></defs><g transform="translate(0)"><path class="a" d="M26.181,8H15.486A7.494,7.494,0,0,0,8,15.486V26.181a7.494,7.494,0,0,0,7.486,7.486H26.181a7.494,7.494,0,0,0,7.486-7.486V15.486A7.494,7.494,0,0,0,26.181,8Zm5.347,18.181a5.353,5.353,0,0,1-5.347,5.347H15.486a5.353,5.353,0,0,1-5.347-5.347V15.486a5.353,5.353,0,0,1,5.347-5.347H26.181a5.353,5.353,0,0,1,5.347,5.347Z" transform="translate(-8 -8)"/><path class="a" d="M23.069,27A1.07,1.07,0,0,0,22,28.069V36.09a1.069,1.069,0,0,0,2.139,0V28.069A1.07,1.07,0,0,0,23.069,27Z" transform="translate(-14.514 -16.84)"/><path class="a" d="M34.278,28.069H33.208a3.2,3.2,0,0,0-1.069.187v-.187a1.069,1.069,0,0,0-2.139,0V36.09a1.069,1.069,0,0,0,2.139,0V31.278a1.071,1.071,0,0,1,1.069-1.069h1.069a1.071,1.071,0,0,1,1.069,1.069V36.09a1.069,1.069,0,1,0,2.139,0V31.278A3.212,3.212,0,0,0,34.278,28.069Z" transform="translate(-18.236 -16.84)"/><path class="a" d="M22.6,18a1.6,1.6,0,1,0,1.6,1.6A1.606,1.606,0,0,0,22.6,18Z" transform="translate(-14.049 -12.653)"/></g></svg>