<svg xmlns="http://www.w3.org/2000/svg" xmlns:xlink="http://www.w3.org/1999/xlink" width="42.858" height="48" viewBox="0 0 42.858 48"><defs><style>.a{fill:url(#a);}.b{fill:url(#b);}.c{fill:url(#c);}.d{fill:url(#d);}.e{fill:#6e77e5;}</style><radialGradient id="a" cx="0.037" cy="0.149" r="1.106" gradientTransform="translate(0)" gradientUnits="objectBoundingBox"><stop offset="0.167" stop-color="#4674b5"/><stop offset="0.331" stop-color="#4877b5"/><stop offset="0.494" stop-color="#4e83b5"/><stop offset="0.658" stop-color="#5997b6"/><stop offset="0.821" stop-color="#68b4b7"/><stop offset="0.983" stop-color="#7bd7b8"/><stop offset="1" stop-color="#7edcb9"/></radialGradient><linearGradient id="b" x1="0.206" y1="0.5" x2="1.603" y2="0.5" gradientUnits="objectBoundingBox"><stop offset="0" stop-color="#7edcb9"/><stop offset="0.017" stop-color="#7bd7b8"/><stop offset="0.179" stop-color="#68b4b7"/><stop offset="0.342" stop-color="#5997b6"/><stop offset="0.506" stop-color="#4e83b5"/><stop offset="0.669" stop-color="#4877b5"/><stop offset="0.833" stop-color="#4674b5"/></linearGradient><linearGradient id="c" x1="16.715" y1="0.251" x2="17.715" y2="0.251" gradientUnits="objectBoundingBox"><stop offset="0.01" stop-color="#8c0053"/><stop offset="0.143" stop-color="#8f0651"/><stop offset="0.324" stop-color="#99174c"/><stop offset="0.532" stop-color="#a83345"/><stop offset="0.76" stop-color="#bf5b3b"/><stop offset="1" stop-color="#db8d2e"/></linearGradient><linearGradient id="d" x1="16.892" y1="-0.392" x2="18.289" y2="-0.392" gradientUnits="objectBoundingBox"><stop offset="0" stop-color="#db8d2e"/><stop offset="0.24" stop-color="#bf5b3b"/><stop offset="0.468" stop-color="#a83345"/><stop offset="0.676" stop-color="#99174c"/><stop offset="0.857" stop-color="#8f0651"/><stop offset="0.99" stop-color="#8c0053"/></linearGradient></defs><g transform="translate(-167.267 -123.764)"><g transform="translate(167.267 123.783)"><path class="a" d="M180.912,189.911a4.07,4.07,0,0,0,5.756,0h0a4.069,4.069,0,0,0,0-5.755l-12.324-12.324a4.07,4.07,0,0,0-5.756,0h0a4.07,4.07,0,0,0,0,5.756l7.29,7.272Z" transform="translate(-167.362 -158.308)"/><path class="b" d="M186.572,125.028a4.07,4.07,0,0,0-5.756,0l-12.324,12.324a3.988,3.988,0,0,0-.162,5.587l.063.067.082.082.017.019.021.019,7.27,7.261c-3.914-3.914,1.341-10.155,1.341-10.155h0l9.45-9.449A4.071,4.071,0,0,0,186.572,125.028Z" transform="translate(-167.267 -123.836)"/></g><g transform="translate(189.627 138.97)"><path class="c" d="M259.085,182.669a4.07,4.07,0,0,0-5.756,0h0a4.07,4.07,0,0,0,0,5.755l12.324,12.324a4.069,4.069,0,0,0,5.755,0h0a4.07,4.07,0,0,0,0-5.756l-7.29-7.272Z" transform="translate(-252.138 -181.477)"/><path class="d" d="M253.33,230.534a4.071,4.071,0,0,0,5.756,0l12.323-12.324a3.988,3.988,0,0,0,.163-5.587l-.063-.067-.082-.082c-.006-.006-.011-.013-.018-.019s-.014-.012-.021-.019l-7.27-7.261c3.915,3.914-1.341,10.155-1.341,10.155h0l-9.449,9.449A4.07,4.07,0,0,0,253.33,230.534Z" transform="translate(-252.138 -198.931)"/></g><path class="e" d="M217.507,168.95a3.94,3.94,0,0,1-4.937,2.584h0a3.94,3.94,0,0,1-2.584-4.937l12.747-40.068a3.941,3.941,0,0,1,4.937-2.585h0a3.941,3.941,0,0,1,2.584,4.937Z" transform="translate(-31.331 0)"/></g></svg>