<svg xmlns="http://www.w3.org/2000/svg" width="25.667" height="25.667" viewBox="0 0 25.667 25.667"><defs><style>.a{fill:#6e77e5;}</style></defs><path class="a" d="M33.667,20.833A12.843,12.843,0,0,0,17.052,8.566a6.417,6.417,0,0,0-8.486,8.486A12.843,12.843,0,0,0,24.614,33.1,6.416,6.416,0,0,0,33.1,24.615a12.85,12.85,0,0,0,.566-3.782Zm-2.675,4.341.018.035a4.278,4.278,0,0,1-5.8,5.8,1.088,1.088,0,0,0-.375-.12,1.034,1.034,0,0,0-.136-.009h-.009a1.054,1.054,0,0,0-.361.065,10.705,10.705,0,0,1-13.6-13.624,1.1,1.1,0,0,0,.056-.273c0-.025,0-.051,0-.076h0v0h0v-.006a1.061,1.061,0,0,0-.111-.471l-.018-.035a4.278,4.278,0,0,1,5.8-5.8,1.078,1.078,0,0,0,.365.119,1.089,1.089,0,0,0,.145.011h.009a1.054,1.054,0,0,0,.362-.065,10.706,10.706,0,0,1,13.609,13.6,1.071,1.071,0,0,0-.066.367h0V24.7a1.059,1.059,0,0,0,.111.471Z" transform="translate(-8 -8)"/><path class="a" d="M28.278,22.139c1.159,0,2.139.735,2.139,1.6a1.069,1.069,0,1,0,2.139,0A4.042,4.042,0,0,0,28.278,20,4.042,4.042,0,0,0,24,23.743a4.042,4.042,0,0,0,4.278,3.743c1.159,0,2.139.735,2.139,1.6s-.98,1.6-2.139,1.6-2.139-.735-2.139-1.6a1.069,1.069,0,0,0-2.139,0,4.042,4.042,0,0,0,4.278,3.743,4.042,4.042,0,0,0,4.278-3.743,4.042,4.042,0,0,0-4.278-3.743c-1.159,0-2.139-.735-2.139-1.6S27.118,22.139,28.278,22.139Z" transform="translate(-15.444 -13.583)"/></svg>