<svg xmlns="http://www.w3.org/2000/svg" width="24.753" height="23.678" viewBox="0 0 24.753 23.678"><defs><style>.a{fill:#e2edfb;}</style></defs><path class="a" d="M1377.1,604.041l6.162.894a1.38,1.38,0,0,1,.765,2.354l-4.458,4.347a1.376,1.376,0,0,0-.4,1.221l1.053,6.137a1.379,1.379,0,0,1-2,1.454l-5.511-2.9a1.382,1.382,0,0,0-1.284,0l-5.511,2.9a1.38,1.38,0,0,1-2-1.454l1.051-6.137a1.379,1.379,0,0,0-.4-1.221l-4.459-4.346a1.379,1.379,0,0,1,.764-2.353l6.161-.9a1.379,1.379,0,0,0,1.039-.754l2.755-5.584a1.38,1.38,0,0,1,2.475,0l2.756,5.583A1.381,1.381,0,0,0,1377.1,604.041Z" transform="translate(-1359.692 -596.934)"/></svg>